<?xml version="1.0" encoding="UTF-8" standalone="no"?>
<!-- Created with Inkscape (http://www.inkscape.org/) -->

<svg
   xmlns:dc="http://purl.org/dc/elements/1.1/"
   xmlns:cc="http://creativecommons.org/ns#"
   xmlns:rdf="http://www.w3.org/1999/02/22-rdf-syntax-ns#"
   xmlns:svg="http://www.w3.org/2000/svg"
   xmlns="http://www.w3.org/2000/svg"
   xmlns:sodipodi="http://sodipodi.sourceforge.net/DTD/sodipodi-0.dtd"
   xmlns:inkscape="http://www.inkscape.org/namespaces/inkscape"
   width="744.09448819"
   height="1052.3622047"
   id="svg2"
   version="1.1"
   inkscape:version="0.47 r22583"
   sodipodi:docname="indx-logo.svg"
   inkscape:export-filename="/Users/rik/indx-logo.png"
   inkscape:export-xdpi="17.897381"
   inkscape:export-ydpi="17.897381">
  <defs
     id="defs4"><inkscape:perspective
   sodipodi:type="inkscape:persp3d"
   inkscape:vp_x="0 : 526.18109 : 1"
   inkscape:vp_y="0 : 1000 : 0"
   inkscape:vp_z="744.09448 : 526.18109 : 1"
   inkscape:persp3d-origin="372.04724 : 350.78739 : 1"
   id="perspective10" />
<marker
   style="overflow:visible"
   refY="0"
   refX="0"
   orient="auto"
   inkscape:stockid="Dot_s"
   id="Dot_s">
  <path
     transform="matrix(0.2,0,0,0.2,1.4250986,0.2)"
     style="fill-rule:evenodd;stroke:#000000;stroke-width:1pt;marker-start:none;marker-end:none"
     id="path933"
     d="M -2.5,-1 C -2.5,1.76 -4.74,4 -7.5,4 C -10.26,4 -12.5,1.76 -12.5,-1 C -12.5,-3.76 -10.26,-6 -7.5,-6 C -4.74,-6 -2.5,-3.76 -2.5,-1 z " />
</marker>
<marker
   style="overflow:visible"
   refY="0"
   refX="0"
   orient="auto"
   inkscape:stockid="SemiCircleIn"
   id="SemiCircleIn">
  <path
     transform="scale(0.6,0.6)"
     style="fill-rule:evenodd;stroke:#000000;stroke-width:1pt;marker-start:none;marker-end:none"
     sodipodi:nodetypes="cccc"
     id="path941"
     d="M -0.37450702,-0.04569258 C -0.37450702,2.7143074 1.865493,4.9543074 4.625493,4.9543074 L 4.625493,-5.0456926 C 1.865493,-5.0456926 -0.37450702,-2.8056926 -0.37450702,-0.04569258 z " />
</marker>
<marker
   style="overflow:visible"
   refY="0"
   refX="0"
   orient="auto"
   inkscape:stockid="Club"
   id="Club">
  <path
     transform="scale(0.6,0.6)"
     style="fill-rule:evenodd;stroke:#000000;stroke-width:0.74587913pt;marker-start:none"
     id="path1015"
     d="M -1.5971367,-7.0977635 C -3.4863874,-7.0977635 -5.0235187,-5.5606321 -5.0235187,-3.6713813 C -5.0235187,-3.0147015 -4.7851656,-2.4444556 -4.4641095,-1.9232271 C -4.5028609,-1.8911157 -4.5437814,-1.8647646 -4.5806531,-1.8299921 C -5.2030765,-2.6849849 -6.1700514,-3.275133 -7.307773,-3.275133 C -9.1970245,-3.2751331 -10.734155,-1.7380016 -10.734155,0.15124914 C -10.734155,2.0404999 -9.1970245,3.5776313 -7.307773,3.5776313 C -6.3143268,3.5776313 -5.439154,3.1355702 -4.8137404,2.4588126 C -4.9384274,2.8137041 -5.0235187,3.1803 -5.0235187,3.5776313 C -5.0235187,5.4668819 -3.4863874,7.0040135 -1.5971367,7.0040135 C 0.29211394,7.0040135 1.8292454,5.4668819 1.8292454,3.5776313 C 1.8292454,2.7842354 1.5136868,2.0838028 1.0600576,1.503155 C 2.4152718,1.7663868 3.7718375,2.2973711 4.7661444,3.8340272 C 4.0279463,3.0958289 3.5540908,1.7534117 3.5540908,-0.058529361 L 2.9247554,-0.10514681 L 3.5074733,-0.12845553 C 3.5074733,-1.9403966 3.9580199,-3.2828138 4.6962183,-4.0210121 C 3.7371277,-2.5387813 2.4390549,-1.9946496 1.1299838,-1.7134486 C 1.5341802,-2.2753578 1.8292454,-2.9268556 1.8292454,-3.6713813 C 1.8292454,-5.5606319 0.29211394,-7.0977635 -1.5971367,-7.0977635 z " />
</marker>
<linearGradient
   id="linearGradient11775">
  <stop
     style="stop-color:#000;stop-opacity:1;"
     offset="0"
     id="stop11776" />
  <stop
     style="stop-color:#fff;stop-opacity:1;"
     offset="1"
     id="stop11777" />
</linearGradient>
<inkscape:perspective
   id="perspective2888"
   inkscape:persp3d-origin="158.52504 : 126.94896 : 1"
   inkscape:vp_z="317.05008 : 190.42345 : 1"
   inkscape:vp_y="0 : 1000 : 0"
   inkscape:vp_x="0 : 190.42345 : 1"
   sodipodi:type="inkscape:persp3d" />
<inkscape:perspective
   id="perspective3983"
   inkscape:persp3d-origin="288.5 : 192.33333 : 1"
   inkscape:vp_z="577 : 288.5 : 1"
   inkscape:vp_y="0 : 1000 : 0"
   inkscape:vp_x="0 : 288.5 : 1"
   sodipodi:type="inkscape:persp3d" />

	

	
	
	
	
	
	
	
	
	
	
	
	
	
	
	
	
	
	
	
	
	
	
	
	
	
	
	
	
	
	
	

		
		
	
			
			
			
			
			
			
			
			
			
			
			
			
			
			
			
			
			
			
			
			
			
			
			
			
			
			
			
			
			
			
			
			
			
			
			
			
			
			
			
			
			
			
			
			
			
			
			
			
			
			
			
			
			
			
			
			
			
			
			
			
			
			
			
			
			
			
			
			
			
			
			
		
			
			
			
			
			
			
			
			
			
			
			
			
			
			
			
			
			
			
			
			
			
			
			
		
				
				
			
				
				
			
				
				
			
				
				
			
				
				
			
				
				
			
				
				
			
				
				
			
				
				
			
				
				
			
				
				
			
				
				
			
				
				
			
				
				
			
				
				
			
				
				
			
				
				
			
				
				
			
				
				
			
				
				
			
				
				
			
				
				
			
				
				
			
				
				
			
				
				
			
				
				
			
				
				
			
				
				
			
				
				
			
				
				
			
				
				
			
				
				
			
				
				
			
				
				
			
				
				
			
				
				
			
				
				
			
				
				
			
				
				
			
				
				
			
				
				
			
				
				
			
				
				
			
				
				
			
				
				
			
				
				
			
				
				
			
				
				
			
				
				
			
				
				
			
				
				
			
				
				
			
				
				
			
				
				
			
				
				
			
				
				
			
				
				
			
				
				
			
				
				
			
				
				
			
				
				
			
				
				
			
				
			
				
			
				
			
				
			
				
			
				
			
				
			
				
			
				
			</defs>
  <sodipodi:namedview
     id="base"
     pagecolor="#ffffff"
     bordercolor="#666666"
     borderopacity="1.0"
     inkscape:pageopacity="0.0"
     inkscape:pageshadow="2"
     inkscape:zoom="1.28"
     inkscape:cx="398.16774"
     inkscape:cy="675.9097"
     inkscape:document-units="px"
     inkscape:current-layer="layer1"
     showgrid="false"
     inkscape:window-width="1276"
     inkscape:window-height="756"
     inkscape:window-x="4"
     inkscape:window-y="0"
     inkscape:window-maximized="0" />
  <metadata
     id="metadata7">
    <rdf:RDF>
      <cc:Work
         rdf:about="">
        <dc:format>image/svg+xml</dc:format>
        <dc:type
           rdf:resource="http://purl.org/dc/dcmitype/StillImage" />
        <dc:title></dc:title>
      </cc:Work>
    </rdf:RDF>
  </metadata>
  <g
     inkscape:label="Layer 1"
     inkscape:groupmode="layer"
     id="layer1">
    <g
       id="g7054"
       transform="matrix(0.23085778,0.9729875,-0.9729875,0.23085778,756.392,-81.70643)">
      <rect
         style="fill:#ffffff;fill-opacity:1;stroke:#000000;stroke-width:4;stroke-miterlimit:4;stroke-opacity:1;stroke-dasharray:none"
         y="467.40125"
         x="338.86719"
         height="81.835938"
         width="82.03125"
         id="rect6219" />
      <path
         id="polygon303"
         d="m 380.03906,508.66406 0,40.25 40.46875,0 0,-40.25 -40.46875,0 z"
         style="fill:#000000;fill-opacity:1" />
      <path
         id="path7013"
         d="m 339.54502,508.81589 c 80.37815,0 80.37815,-0.27621 80.37815,-0.27621"
         style="fill:#ffffff;fill-opacity:1;stroke:#000000;stroke-width:4;stroke-linecap:butt;stroke-linejoin:miter;stroke-miterlimit:4;stroke-opacity:1;stroke-dasharray:none" />
      <path
         id="path7015"
         d="m 380.14842,549.41929 c 0,-80.93058 0,-80.65437 0,-80.65437"
         style="fill:#ffffff;fill-opacity:1;stroke:#000000;stroke-width:4;stroke-linecap:butt;stroke-linejoin:miter;stroke-miterlimit:4;stroke-opacity:1;stroke-dasharray:none" />
    </g>
    <path
       style="fill:#000000;fill-opacity:1;fill-rule:evenodd;stroke:#000000;stroke-width:0.55485721pt;stroke-linecap:butt;stroke-linejoin:miter;stroke-opacity:1"
       sodipodi:nodetypes="cccccccccccccccccccccccccccccccccccccccccccccccccccccccccccccccccccccccccccccccccccccccccccccccccccccccccccccccccccccccccccccccccccccccccccccccccccccccccccccccccccccccccccccccccccccccccccccccc"
       id="path10416"
       d="m 353.90485,355.63453 c 1.474,-1.22833 3.68498,-2.94798 6.63295,-2.70232 2.94798,0.24567 9.58094,0.737 12.03759,0.24567 2.45664,-0.49133 4.42197,0.24566 5.15896,-1.71966 0.73699,-1.96531 0.98266,-8.35261 2.94798,-10.80926 1.96531,-2.45664 7.36994,-5.15896 8.10694,-7.61561 0.73699,-2.45664 0.98265,-3.43931 0,-5.89595 -0.98266,-2.45666 -3.19365,-4.66764 -6.38729,-6.14163 -3.19364,-1.47398 -6.14162,-2.45664 -6.14162,-2.45664 0,0 -6.38728,5.89595 -6.63295,7.36994 -0.24566,1.47399 0.49133,2.94798 -0.98266,3.68497 -1.47399,0.737 -3.93064,-1.47398 -4.42197,-5.40462 -0.49133,-3.93064 1.22833,-8.59827 0.98266,-11.30059 -0.24567,-2.70232 -1.96532,-5.15896 -0.49133,-7.86127 1.47399,-2.70232 4.9133,-6.87862 7.61562,-8.84394 2.7023,-1.96532 7.36994,-2.21098 8.10694,-4.66764 0.73699,-2.45665 -4.66764,-11.79191 -4.66764,-14.0029 0,-2.21098 0.737,-6.38728 -0.98266,-9.82659 -1.71965,-3.43931 -3.68497,-10.80926 -11.05492,-15.47689 -7.36995,-4.66764 -12.52891,-6.63295 -13.75723,-10.07226 -1.22833,-3.43931 -0.24567,-3.43931 1.22832,-4.42197 1.47399,-0.98267 -3.93064,-6.63295 -5.6503,-12.03758 -1.71965,-5.40463 -4.66763,-16.21389 -3.43931,-17.19655 1.22833,-0.98266 4.91331,0 5.65031,1.96532 0.73699,1.96532 3.68497,14.0029 3.68497,14.0029 0,0 -0.737,-9.0896 0.49133,-11.79192 1.22832,-2.70231 2.70231,-5.40462 4.1763,-4.66763 1.47399,0.737 0.73699,16.70522 0.73699,16.70522 0,0 1.47399,-3.68498 2.45665,-5.89596 0.98266,-2.21098 1.71966,-4.17631 2.94799,-2.94798 1.22831,1.22833 0.24566,13.02024 0.24566,13.02024 0,0 1.96532,-2.94798 3.43931,-3.68497 1.47398,-0.737 2.21098,-1.22833 3.19364,0.49133 0.98266,1.71965 0.737,3.93063 0.737,3.93063 0,0 0.73699,-2.45664 2.45665,-2.45664 1.71965,0 3.93063,0.73699 3.19364,2.70231 -0.737,1.96532 6.63294,0.24567 6.14162,3.68497 -0.49133,3.43931 0,6.63295 1.96531,6.63295 1.96532,0 3.19365,2.70232 7.12428,1.71966 2.45666,1.47399 -1.22832,10.56359 0.49133,9.33527 1.71966,-1.22833 5.6503,-2.21099 7.12429,0.49132 1.47399,2.70232 -1.96532,5.89597 -1e-5,8.35262 1.96533,2.45665 0,4.66763 2.94798,6.63295 2.94799,1.96532 3.19365,0.49133 3.93064,4.9133 0.737,4.42197 0.737,6.38728 1.96533,8.10694 1.22832,1.71965 2.70231,2.94798 2.45664,6.63296 -0.24566,3.68497 -2.45664,7.12427 0.49134,6.63295 2.94797,-0.49134 4.1763,-3.43931 6.38728,-4.66764 2.21099,-1.22832 2.70231,-1.47399 5.6503,-3.68498 2.94797,-2.21098 3.43931,-5.15895 5.15895,-5.89595 1.71967,-0.737 3.19365,-0.49132 5.6503,-1.47399 2.45665,-0.98266 4.91329,-3.19364 6.14162,-4.17631 1.22833,-0.98265 1.22833,-1.47398 3.43931,-3.4393 2.21099,-1.96532 4.42197,-3.19365 5.89596,-6.38729 1.47398,-3.19364 1.22832,-3.43931 2.94798,-8.10695 1.71965,-4.66763 1.22832,-6.14162 2.21098,-8.10693 0.98266,-1.96533 0.98266,-3.68498 2.70231,-5.40464 1.71966,-1.71965 3.19365,-3.68497 3.43931,-1.96531 0.24567,1.71965 0.24567,4.1763 0.24567,5.65029 0,1.47399 2.21098,-2.21098 4.1763,-5.89596 1.96533,-3.68497 0.98266,-4.1763 1.71966,-7.36994 0.73699,-3.19365 0,-5.40464 0.24567,-9.08961 0.24566,-3.68497 0.73699,-3.93064 0.98265,-9.33527 0.24566,-5.40463 0.68233,-6.3122 0.68233,-10.24284 0,-3.93064 -0.14288,-5.52053 -0.191,-8.42769 0.8529,-2.2314 1.80859,-2.91371 2.45665,-2.70231 0.79822,0.2114 1.86983,0.22525 2.51132,3.19364 0.49133,3.19365 0.93455,5.57521 1.41932,11.54625 -0.49133,5.89595 -0.73699,11.05492 0.24566,12.52891 0.98266,1.47399 1.71965,1.22833 2.45665,-0.49133 0.737,-1.71965 0.737,-2.45664 1.71966,-5.40463 0.98265,-2.94798 0.92068,-4.87978 1.42587,-8.9941 -0.24566,-6.14163 0.0481,-8.93943 0.29378,-13.60707 0.24566,-4.66763 -0.0269,-4.80394 0.49134,-7.61561 0.4432,-2.6615 1.06429,-3.2957 3.19363,-2.94798 1.22833,1.47399 1.474,5.15896 1.96532,8.35261 0.49133,3.19364 0.49133,2.94798 0.737,8.84393 0.24566,5.89596 0.0343,8.24982 -0.45707,10.21514 -0.1159,2.19057 -0.55256,4.36729 -0.27993,5.26176 1.47399,-0.98267 1.47399,-2.70232 2.94799,-6.14163 1.47398,-3.43931 2.70231,-6.38729 3.19364,-10.31793 0.49133,-3.93064 1.80204,-5.37036 2.64108,-9.69683 1.96532,-4.1763 2.39542,-5.18593 3.7462,-5.28872 1.42587,1.02348 2.10164,1.94491 1.96532,5.15896 -0.73699,3.4393 -0.73699,5.15896 -1.96532,8.59827 -1.22832,3.43931 -0.98266,4.91329 -2.70231,8.59827 -1.04389,3.23447 -1.1729,4.33303 -1.71966,5.40463 2.45666,0.24567 2.42239,-0.73044 3.93064,-2.45665 2.48436,-4.72961 1.54252,-3.73309 2.45665,-5.15896 1.36465,-2.85248 2.53173,-3.90293 3.68498,-3.43931 1.22832,1.96531 1.71965,2.45665 0.73699,4.66764 -0.98266,2.21098 -0.24566,0.73698 -1.71965,3.93063 -1.47399,3.19365 -2.94798,4.42197 -0.98266,4.1763 1.96532,-0.24566 2.21098,0 3.43931,-1.96532 1.22833,-1.96531 0,-2.21098 2.70231,-3.4393 2.70232,-1.22833 4.42197,-3.43931 5.15897,-1.71966 0.73699,1.71966 0.98266,1.47399 -0.737,3.93064 -1.71965,2.45665 -3.43931,3.19364 -2.70231,4.42197 0.73699,1.22832 2.70231,1.47399 4.1763,1.47399 1.47399,0 1.71965,0.24566 0.98266,2.70232 -0.73699,2.45664 -0.98266,2.45664 -1.22833,3.68497 -0.24566,1.22832 0.98266,2.21098 0.98266,2.21098 0,0 2.21099,-1.47399 0.49133,2.21099 -1.71965,3.68497 -2.70231,2.70231 -3.68497,4.42196 -0.98266,1.71966 -1.96532,3.43931 -0.49133,3.43931 1.47399,0 2.94798,-0.24566 2.70231,0.98266 -0.24566,1.22833 -2.45665,2.45665 -1.22832,3.19364 1.22832,0.737 2.21098,-0.24566 3.19364,0.737 0.98266,0.98266 0,2.70231 0,3.93064 0,1.22832 -0.24566,2.21099 0.24566,3.43931 0.49134,1.22832 1.474,2.45665 0.737,3.68497 -0.737,1.22833 0.24567,1.474 -1.71965,2.70232 -1.96532,1.22832 -3.19365,0.98266 -3.19365,2.21098 0,1.22833 -0.24566,0.98266 0.98266,1.96532 1.22833,0.98265 2.70232,0.24566 1.71966,2.45665 -0.98266,2.21099 -0.737,1.96532 -1.22832,3.93064 -0.49134,1.96533 0.24566,0.98266 -1.96533,5.6503 -2.21098,4.66763 -4.42196,8.10694 -6.63295,9.33526 -2.21098,1.22832 -1.71965,3.93064 -0.24566,4.42197 1.47399,0.49133 1.71965,2.70231 0.24566,5.89596 -1.47398,3.19364 -3.19364,7.36995 -3.68497,9.58093 -0.49133,2.21098 -0.98266,2.45664 -3.43931,5.15896 -2.45665,2.70232 -4.42197,5.15896 -6.63295,5.89596 -2.21098,0.737 -2.45665,3.19365 -3.93064,4.42197 -1.47399,1.22832 -1.96532,1.96532 -5.15896,1.96532 -3.19365,0 -3.19365,-0.737 -6.38729,0.24566 -3.19365,0.98267 -4.66764,1.96532 -4.9133,3.43931 -0.24566,1.47399 -1.22832,2.21099 -3.19365,1.71966 -1.96531,-0.49133 -0.49132,0.98265 -2.94798,1.96531 -2.45664,0.98266 -1.71964,2.21099 -4.66763,1.96533 -2.94798,-0.24567 -4.42196,-2.45666 -5.15896,0 -0.73699,2.45664 -0.98266,4.42196 -4.1763,2.21098 -3.19364,-2.21098 -4.9133,-8.10694 -6.63295,-1.96532 -1.71966,6.14163 -1.71966,7.61561 0.24566,9.33526 1.96532,1.71966 2.45665,3.19364 6.87862,4.91331 4.42197,1.71964 4.42197,3.68497 7.61561,4.91329 3.19365,1.22832 3.43931,1.71966 8.35261,4.1763 4.9133,2.45666 6.14162,3.19365 9.08959,4.9133 2.94798,1.71966 3.68498,3.43931 4.42197,5.15897 0.737,1.71965 3.93065,3.68497 2.70232,6.14162 -1.22832,2.45665 -3.68498,0.98266 -3.68498,2.21098 0,1.22833 0.49134,2.21099 -0.49133,4.66764 -0.98265,2.45664 -0.73699,3.43931 -4.1763,4.42196 -3.43931,0.98266 -5.40462,1.47399 -7.12428,0.737 -1.71965,-0.737 -2.21098,2.21098 -3.93064,1.47398 -1.71965,-0.73699 -2.45665,-2.94797 -3.68497,-1.71964 -1.22832,1.22832 0.98266,1.96532 -1.96532,2.70231 -2.94797,0.737 -3.19364,-1.22833 -3.43931,0.49133 -0.24566,1.71965 0.737,3.43931 -2.45665,1.71965 -3.19364,-1.71965 -2.21099,-5.15896 -4.66763,-2.70231 -2.45665,2.45665 -1.22833,5.40463 -5.6503,2.94797 -4.42196,-2.45664 -2.94798,-2.70231 -6.38728,-2.45664 -3.43931,0.24566 -3.43931,0.49133 -4.66764,-2.21099 -1.22832,-2.70231 1.22833,-1.96531 -4.1763,-2.21099 -5.40462,-0.24566 -2.70231,3.19365 -6.14162,-1.47398 -3.43931,-4.66763 -4.17631,-9.33526 -5.65029,-4.1763 -1.47399,5.15896 0,6.38728 -2.21099,7.86127 -2.21098,1.474 -13.51157,0.98266 -13.51157,0.98266 0,0 -0.24566,5.6503 -1.22832,6.63296 -0.98266,0.98265 -3.43931,-0.98266 -5.65029,0.98265 -2.21099,1.96533 -0.737,3.19365 -2.70232,4.9133 -1.96532,1.71966 -5.89596,1.96532 -5.89596,1.96532 0,0 2.70231,-2.21098 3.43931,-4.1763 0.737,-1.96532 1.71966,-5.40463 1.71966,-5.40463 0,0 -3.93064,1.47399 -5.6503,1.71966 -1.71964,0.24566 -4.42196,-0.24567 -4.42196,-0.24567 l 0.73699,5.65029 c 0,0 -4.66763,0 -4.66763,-1.96531 0,-1.96533 1.47399,-7.36995 2.70232,-8.10694 1.22832,-0.737 2.94798,-0.49134 2.94798,-0.49134 0,0 -0.49133,-2.45665 0.73699,-2.94797 1.22832,-0.49134 1.96531,0 3.93063,0 1.96532,0 10.80926,-2.70232 10.80926,-2.70232 0,0 -0.24566,-6.38729 0.737,-9.0896 0.98265,-2.70231 5.65029,-10.31793 3.43931,-11.54625 -2.21099,-1.22833 -3.93065,-0.24567 -5.15897,0.98266 -1.22833,1.22832 -3.43931,4.91329 -8.10694,5.89595 -4.66764,0.98266 -8.35261,1.474 -8.35261,1.474 0,0 -0.98265,0.49133 -0.98265,2.45665 0,1.96531 1.71965,3.93063 -0.73699,6.38728 -2.45666,2.45666 -4.42197,4.66764 -7.12429,3.43931 -2.70232,-1.22833 -3.19364,-2.70232 -3.19364,-2.70232 0,0 1.96531,1.22833 5.15896,0.49134 3.19364,-0.737 1.96532,-6.87862 1.71966,-8.10695 -0.24567,-1.22832 -2.70232,-2.45665 -4.17631,-1.22832 -1.47399,1.22832 -3.43931,4.42196 -2.21099,5.65029 1.22833,1.22833 -3.43931,-2.70231 -3.19364,-4.42197 0.24566,-1.71965 0.98266,-2.94797 0.98266,-2.94797 0,0 -3.19364,0 -5.15896,-0.24567 -1.96532,-0.24567 -3.43931,-1.22833 -3.43931,0.24567 0,1.47399 0.98266,8.10694 -1.22832,3.93063 -2.21099,-4.1763 -3.19365,-5.15896 -0.98267,-7.36994 z" />
  </g>
</svg>
